<svg xmlns="http://www.w3.org/2000/svg" width="24" height="24" fill="none" viewBox="0 0 24 24">
  <defs/>
  <path fill="#949494" d="M7.038 19.917a1 1 0 100 2v-2zm10.018 2a1 1 0 100-2v2zM13 2a1 1 0 10-2 0h2zm9.316 6.449a1 1 0 00-.632-1.898l.632 1.898zM16 15l-.92-.394a1 1 0 00.213 1.101L16 15zm6 0l.707.707a1 1 0 00.212-1.1L22 15zM2 15l-.92-.394a1 1 0 00.213 1.101L2 15zm6 0l.707.707a1 1 0 00.212-1.1L8 15zM2.316 6.551a1 1 0 10-.632 1.898l.632-1.898zm4.722 15.366h5.009v-2h-5.01v2zm5.009 0h5.01v-2h-5.01v2zm1-1.003L13 4.997l-2 .006.047 15.917 2-.006zM13 5V2h-2v3h2zm-1 1c.867 0 1.472.16 1.94.377.479.22.862.52 1.284.882C16.053 7.97 17.074 9 19 9V7c-1.075 0-1.553-.47-2.474-1.26-.453-.387-1.008-.838-1.748-1.18C14.028 4.215 13.133 4 12 4v2zm7 2v1h.01a2.974 2.974 0 00.08-.001 11.91 11.91 0 00.958-.067c.605-.068 1.43-.204 2.268-.483l-.632-1.898a9.22 9.22 0 01-1.857.393 9.917 9.917 0 01-.82.056h-.008v1zm-.92-.394l-3 7 1.84.788 3-7-1.84-.788zm4.84 7l-3-7-1.84.788 3 7 1.84-.788zM16 15l-.707.708h.001l.002.002a.101.101 0 01.003.003l.008.008a3.442 3.442 0 00.081.075 4.7 4.7 0 00.914.599c.623.31 1.525.605 2.698.605v-2c-.827 0-1.425-.206-1.803-.394a2.699 2.699 0 01-.492-.316l-.01-.008s.002 0 .004.003l.003.003.002.002.002.002L16 15zm3 2c1.173 0 2.075-.294 2.697-.606.31-.154.548-.312.715-.438a3.424 3.424 0 00.28-.235l.009-.008a.101.101 0 01.003-.003l.002-.002L22 15c-.707-.707-.707-.707-.706-.708l.001-.002.003-.002.003-.003.003-.003-.01.008a2.699 2.699 0 01-.492.315c-.377.19-.975.395-1.802.395v2zM2 15c-.707.707-.707.707-.706.708l.002.002a.143.143 0 01.003.003l.008.008a2.827 2.827 0 00.28.235c.168.126.406.284.716.438C2.925 16.706 3.827 17 5 17v-2c-.827 0-1.425-.206-1.803-.394a2.694 2.694 0 01-.492-.316l-.01-.008s.002 0 .004.003l.003.003.003.002v.002h.001L2 15zm3 2c1.173 0 2.075-.294 2.697-.606.31-.154.548-.312.715-.438a3.412 3.412 0 00.28-.235l.009-.008a.143.143 0 01.003-.003l.002-.002L8 15c-.707-.707-.707-.707-.706-.708l.001-.002.003-.002.003-.003.003-.003-.01.008c-.013.012-.04.035-.081.066-.083.062-.22.154-.41.25C6.425 14.794 5.827 15 5 15v2zm7-13c-1.133 0-2.028.214-2.778.56-.74.342-1.295.793-1.748 1.18C6.553 6.53 6.074 7 5 7v2c1.925 0 2.947-1.03 3.776-1.74.422-.363.805-.662 1.284-.883C10.528 6.16 11.133 6 12 6V4zM5 8V7h.001-.007a3.674 3.674 0 01-.204-.007 9.921 9.921 0 01-.617-.05 9.222 9.222 0 01-1.857-.392L1.684 8.45c.838.28 1.663.415 2.268.482A11.91 11.91 0 004.99 9H5L5 8zm3.92 6.606l-3-7-1.84.788 3 7 1.84-.788zm-6 .788l3-7-1.84-.788-3 7 1.84.788z"/>
</svg>
