<svg xmlns="http://www.w3.org/2000/svg" width="145" height="64" fill="none" viewBox="0 0 145 64">
  <defs/>
  <path fill="#559FFF" d="M32.736 44.793L1.193 28.114l31.543 31.772V44.793z"/>
  <path fill="#7AB4FF" d="M32.736 44.8L64.28 28.114 32.736 59.886V44.8z"/>
  <path fill="#E6F1FF" d="M64.28 28.114L32.735 44.8 1.193 28.114 32.736 11.43 64.28 28.114z"/>
  <path fill="#559FFF" d="M54.45 28.114L32.736 40 11.022 28.114l21.714-11.886 21.715 11.886z"/>
  <path fill="#99C6FF" d="M16.05 27.886V10.514l16.694-6.127 16.492 6.127-16.5 6.629V36.8l-16.685-8.914z"/>
  <path fill="#7AB4FF" d="M49.422 27.886V10.514l-16.686 6.629V36.8l16.686-8.914z"/>
  <path fill="#559FFF" d="M31.822 34.857l-8.229-4.228v-1.143l8.229 4.228v1.143zM31.822 32.8l-8.229-4.229V27.43l8.229 4.228V32.8z"/>
  <path fill="#B2D4FF" d="M49.422 10.514l-16.686 6.629-8.342-3.314 16.685-6.343 8.343 3.028z"/>
  <path fill="#B3D4FF" d="M24.736 12.114l-8.685-1.6 16.686-6.171 8.228 1.371-16.229 6.4z"/>
  <g>
    <path fill="#559FFF" d="M93.392 25.356L85.436 43.5h-3.924l-7.848-18.144h4.716l5.22 13.032 5.328-13.032h4.464zm12.707-.504c1.56 0 2.94.408 4.14 1.224 1.224.792 2.172 1.92 2.844 3.384.696 1.44 1.044 3.096 1.044 4.968 0 1.872-.336 3.516-1.008 4.932-.672 1.416-1.62 2.508-2.844 3.276-1.2.768-2.592 1.152-4.176 1.152-1.32 0-2.496-.276-3.528-.828a5.957 5.957 0 01-2.376-2.376v10.692h-4.464V30.468c0-1.92-.096-3.636-.288-5.148h4.212l.36 3.132c.48-1.128 1.26-2.004 2.34-2.628 1.08-.648 2.328-.972 3.744-.972zm-1.224 15.408c1.512 0 2.676-.504 3.492-1.512.816-1.008 1.224-2.448 1.224-4.32 0-1.896-.408-3.372-1.224-4.428-.816-1.08-1.968-1.62-3.456-1.62-1.536 0-2.712.516-3.528 1.548-.816 1.032-1.224 2.508-1.224 4.428 0 1.896.408 3.36 1.224 4.392.816 1.008 1.98 1.512 3.492 1.512zm33.196-15.408c2.064 0 3.6.624 4.608 1.872 1.008 1.224 1.512 3.096 1.512 5.616V43.5h-4.5V32.484c0-1.44-.24-2.472-.72-3.096-.456-.648-1.224-.972-2.304-.972-1.248 0-2.232.444-2.952 1.332-.696.864-1.044 2.064-1.044 3.6V43.5h-4.5V32.484c0-1.416-.252-2.448-.756-3.096-.48-.648-1.248-.972-2.304-.972-1.248 0-2.232.444-2.952 1.332-.72.864-1.08 2.064-1.08 3.6V43.5h-4.464V30.468c0-1.92-.096-3.636-.288-5.148h4.212l.324 2.88c.528-1.08 1.284-1.908 2.268-2.484 1.008-.576 2.16-.864 3.456-.864 2.784 0 4.596 1.152 5.436 3.456a6.189 6.189 0 012.448-2.52c1.08-.624 2.28-.936 3.6-.936z"/>
  </g>
</svg>
