<svg width="145" height="64" viewBox="0 0 145 64" fill="none" xmlns="http://www.w3.org/2000/svg">
    <path fill="#559FFF" d="M32.736 44.793L1.193 28.114l31.543 31.772V44.793z"></path>
    <path fill="#7AB4FF" d="M32.736 44.8L64.28 28.114 32.736 59.886V44.8z"></path>
    <path fill="#E6F1FF" d="M64.28 28.114L32.735 44.8 1.193 28.114 32.736 11.43 64.28 28.114z"></path>
    <path fill="#559FFF" d="M54.45 28.114L32.736 40 11.022 28.114l21.714-11.886 21.715 11.886z"></path>
    <path fill="#99C6FF" d="M16.05 27.886V10.514l16.694-6.127 16.492 6.127-16.5 6.629V36.8l-16.685-8.914z"></path>
    <path fill="#7AB4FF" d="M49.422 27.886V10.514l-16.686 6.629V36.8l16.686-8.914z"></path>
    <path fill="#559FFF"
        d="M31.822 34.857l-8.229-4.229v-1.142l8.229 4.228v1.143zM31.822 32.8l-8.229-4.229V27.43l8.229 4.228V32.8z">
    </path>
    <path fill="#B2D4FF" d="M49.422 10.514l-16.686 6.629-8.342-3.314 16.685-6.343 8.343 3.028z"></path>
    <path fill="#B3D4FF" d="M24.736 12.114l-8.685-1.6 16.686-6.171 8.228 1.371-16.229 6.4z"></path>
    <g>
        <path fill="#559FFF"
            d="M81.512 43.5l-7.848-18.18h4.788l5.688 14.22h-1.116l5.832-14.22h4.5L85.472 43.5h-3.96zm14.254 7.776v-21.42a36.358 36.358 0 00-.288-4.536h4.356l.396 3.816h-.396c.36-1.272 1.116-2.28 2.268-3.024 1.176-.768 2.532-1.152 4.068-1.152 1.608 0 3.012.384 4.212 1.152 1.2.744 2.136 1.824 2.808 3.24.672 1.392 1.008 3.072 1.008 5.04s-.336 3.66-1.008 5.076c-.672 1.416-1.608 2.508-2.808 3.276-1.2.744-2.604 1.116-4.212 1.116-1.512 0-2.844-.372-3.996-1.116-1.152-.744-1.92-1.74-2.304-2.988h.396v11.52h-4.5zm9.144-10.872c1.44 0 2.592-.492 3.456-1.476.864-1.008 1.296-2.52 1.296-4.536 0-2.016-.432-3.516-1.296-4.5-.864-.984-2.016-1.476-3.456-1.476-1.416 0-2.556.492-3.42 1.476-.864.984-1.296 2.484-1.296 4.5s.432 3.528 1.296 4.536c.864.984 2.004 1.476 3.42 1.476zm11.741 3.096V29.856a36.358 36.358 0 00-.288-4.536h4.356l.36 3.6h-.432c.504-1.248 1.272-2.22 2.304-2.916 1.056-.696 2.304-1.044 3.744-1.044 1.44 0 2.628.348 3.564 1.044.96.672 1.632 1.728 2.016 3.168h-.576a6.244 6.244 0 012.484-3.06c1.152-.768 2.472-1.152 3.96-1.152 2.04 0 3.564.6 4.572 1.8 1.008 1.2 1.512 3.072 1.512 5.616V43.5h-4.5V32.556c0-1.44-.24-2.472-.72-3.096-.48-.648-1.248-.972-2.304-.972-1.248 0-2.232.444-2.952 1.332-.72.864-1.08 2.04-1.08 3.528V43.5h-4.5V32.556c0-1.44-.24-2.472-.72-3.096-.48-.648-1.248-.972-2.304-.972-1.248 0-2.232.444-2.952 1.332-.696.864-1.044 2.04-1.044 3.528V43.5h-4.5z">
        </path>
    </g>
</svg>