<svg xmlns="http://www.w3.org/2000/svg" width="64" height="64" fill="none" viewBox="0 0 64 64">
  <defs/>
  <path fill="#559FFF" d="M32 44.793L.457 28.114 32 59.886V44.793z"/>
  <path fill="#7AB4FF" d="M32 44.8l31.543-16.686L32 59.886V44.8z"/>
  <path fill="#E6F1FF" d="M63.543 28.114L32 44.8.457 28.114 32 11.43l31.543 16.685z"/>
  <path fill="#559FFF" d="M53.714 28.114L32 40 10.286 28.114 32 16.228l21.714 11.886z"/>
  <path fill="#99C6FF" d="M15.315 27.886V10.514l16.693-6.127L48.5 10.514 32 17.143V36.8l-16.685-8.914z"/>
  <path fill="#7AB4FF" d="M48.685 27.886V10.514L32 17.143V36.8l16.685-8.914z"/>
  <path fill="#559FFF" d="M31.085 34.857l-8.228-4.228v-1.143l8.229 4.228v1.143zM31.085 32.8l-8.228-4.229V27.43l8.229 4.228V32.8z"/>
  <path fill="#B2D4FF" d="M48.686 10.514L32 17.143l-8.343-3.314 16.686-6.343 8.343 3.028z"/>
  <path fill="#B3D4FF" d="M24 12.114l-8.685-1.6L32 4.343l8.229 1.371L24 12.114z"/>
</svg>
