<svg width="144" height="64" viewBox="0 0 144 64" fill="none" xmlns="http://www.w3.org/2000/svg">
<path d="M32 44.7931L0.457153 28.1143L32 59.8857V44.7931Z" fill="#4078C0"/>
<path d="M32 44.8L63.5428 28.1143L32 59.8857V44.8Z" fill="#8FBFF2"/>
<path d="M63.5429 28.1143L32 44.8L0.457153 28.1143L32 11.4286L63.5429 28.1143Z" fill="#EEF9FF"/>
<path d="M53.7143 28.1142L32 39.9999L10.2857 28.1142L32 16.2285L53.7143 28.1142Z" fill="#D3E9F2"/>
<path d="M15.3143 27.8857V10.5143L32 17.1429V36.8L15.3143 27.8857Z" fill="#82B3E8"/>
<path d="M48.6857 27.8857V10.5143L32 17.1429V36.8L48.6857 27.8857Z" fill="#8FBFF2"/>
<path d="M31.0857 34.8571L22.8571 30.6286V29.4857L31.0857 33.7143V34.8571Z" fill="#5582AA"/>
<path d="M31.0857 32.8L22.8571 28.5714V27.4286L31.0857 31.6572V32.8Z" fill="#5582AA"/>
<path d="M32 17.1429L15.3143 10.5143L32 4.45715L48.6857 10.5143L32 17.1429Z" fill="#B3D7F2"/>
<path fill-rule="evenodd" clip-rule="evenodd" d="M23.8571 13.908L15.3143 10.5143L32 4.45715L39.9717 7.35101L23.8571 13.908Z" fill="#97C7EE"/>
<path d="M24 12.1143L15.3143 10.5143L32 4.3429L40.2286 5.71432L24 12.1143Z" fill="#B3D7F2"/>
<path d="M91.684 22.384L85.672 41.5H78.94L72.784 22.384H78.976L82.36 37.18L85.888 22.384H91.684Z" fill="#4078C0"/>
<path d="M104.273 21.844C106.673 21.844 108.449 22.732 109.601 24.508C110.777 26.26 111.365 28.732 111.365 31.924C111.365 33.868 111.065 35.608 110.465 37.144C109.865 38.68 108.989 39.892 107.837 40.78C106.709 41.644 105.365 42.076 103.805 42.076C101.861 42.076 100.289 41.392 99.089 40.024V48.844L93.977 49.42V22.42H98.477L98.729 24.652C99.449 23.716 100.289 23.02 101.249 22.564C102.233 22.084 103.241 21.844 104.273 21.844ZM102.293 38.26C104.789 38.26 106.037 36.16 106.037 31.96C106.037 29.656 105.761 28.024 105.209 27.064C104.657 26.104 103.817 25.624 102.689 25.624C101.969 25.624 101.297 25.852 100.673 26.308C100.073 26.74 99.545 27.328 99.089 28.072V36.388C99.905 37.636 100.973 38.26 102.293 38.26ZM134.61 21.844C136.122 21.844 137.334 22.36 138.246 23.392C139.182 24.424 139.65 25.828 139.65 27.604V41.5H134.538V28.468C134.538 26.596 133.914 25.66 132.666 25.66C131.994 25.66 131.406 25.876 130.902 26.308C130.398 26.74 129.882 27.412 129.354 28.324V41.5H124.242V28.468C124.242 26.596 123.618 25.66 122.37 25.66C121.698 25.66 121.11 25.888 120.606 26.344C120.102 26.776 119.598 27.436 119.094 28.324V41.5H113.982V22.42H118.41L118.806 24.796C119.526 23.836 120.33 23.104 121.218 22.6C122.13 22.096 123.174 21.844 124.35 21.844C125.43 21.844 126.366 22.12 127.158 22.672C127.95 23.2 128.526 23.956 128.886 24.94C129.678 23.908 130.53 23.14 131.442 22.636C132.378 22.108 133.434 21.844 134.61 21.844Z" fill="#77B5F7"/>
</svg>
