<svg version="1" xmlns="http://www.w3.org/2000/svg" width="933.333" height="933.333" viewBox="0 0 700.000000 700.000000"><path d="M335.3 102.9l-75.2 29.7-44.8-8.2c-24.6-4.5-45.1-8-45.5-7.8-.4.3-1.7 0-2.8-.6l-2-1.1.2 95.1.3 95.2 87 46.5c47.9 25.6 88.8 47.4 91 48.5l4.1 2 91.2-48.7 91.2-48.7v-94.5c0-89.8-.1-94.5-1.8-94.1-.9.3-41.5 16.3-90.2 35.6s-89 35.2-89.5 35.4c-1.3.4-89.5-34.3-89.5-35.1 0-.3 10.5-4.8 23.3-10 48.5-19.6 142.4-57.8 148.5-60.4l3.3-1.4-10.3-3.7c-5.7-2-11-3.6-11.8-3.5-.8 0-35.3 13.4-76.7 29.8z"/><path d="M175.5 480.9c94.6 94.6 172.4 172.1 173 172.1.6 0 78.4-77.4 173-172.1l172-172.1-17.5 9c-9.6 5-87.1 45.3-172.2 89.5L349 487.8l-27.7-14.5C158.2 388.4 7 310 5.4 309.4c-1.1-.4 75.5 76.8 170.1 171.5z"/></svg>