<svg width="16" height="17" viewBox="0 0 16 17" fill="none" xmlns="http://www.w3.org/2000/svg">
<path d="M9.3333 15.1667H2.66663C2.30935 15.1791 1.96295 15.0426 1.71016 14.7898C1.45737 14.537 1.32088 14.1906 1.3333 13.8334V7.16669C1.32088 6.80941 1.45737 6.46301 1.71016 6.21022C1.96295 5.95743 2.30935 5.82094 2.66663 5.83336H5.3333V3.16669C5.32088 2.80941 5.45737 2.46301 5.71016 2.21022C5.96295 1.95743 6.30935 1.82094 6.66663 1.83336H13.3333C13.6906 1.82094 14.037 1.95743 14.2898 2.21022C14.5426 2.46301 14.679 2.80941 14.6666 3.16669V9.83336C14.6788 10.1906 14.5423 10.5369 14.2896 10.7896C14.0368 11.0424 13.6905 11.1789 13.3333 11.1667H10.6666V13.8334C10.6788 14.1906 10.5423 14.5369 10.2896 14.7896C10.0368 15.0424 9.69053 15.1789 9.3333 15.1667ZM2.66663 7.16669V13.8334H9.3333V11.1667H6.66663C6.3094 11.1789 5.96312 11.0424 5.71038 10.7896C5.45763 10.5369 5.32108 10.1906 5.3333 9.83336V7.16669H2.66663ZM6.66663 3.16669V9.83336H13.3333V3.16669H6.66663Z" fill="#8F95A3"/>
</svg>
