<svg width="16" height="17" viewBox="0 0 16 17" fill="none" xmlns="http://www.w3.org/2000/svg">
<path d="M9.3333 15.1666H2.66663C2.30935 15.179 1.96295 15.0426 1.71016 14.7898C1.45737 14.537 1.32088 14.1906 1.3333 13.8333V7.16663C1.32088 6.80935 1.45737 6.46295 1.71016 6.21016C1.96295 5.95737 2.30935 5.82088 2.66663 5.8333H5.3333V3.16663C5.32088 2.80935 5.45737 2.46295 5.71016 2.21016C5.96295 1.95737 6.30935 1.82088 6.66663 1.8333H13.3333C13.6906 1.82088 14.037 1.95737 14.2898 2.21016C14.5426 2.46295 14.679 2.80935 14.6666 3.16663V9.8333C14.6788 10.1905 14.5423 10.5368 14.2896 10.7896C14.0368 11.0423 13.6905 11.1788 13.3333 11.1666H10.6666V13.8333C10.6788 14.1905 10.5423 14.5368 10.2896 14.7896C10.0368 15.0423 9.69053 15.1788 9.3333 15.1666ZM2.66663 7.16663V13.8333H9.3333V11.1666H6.66663C6.3094 11.1788 5.96312 11.0423 5.71038 10.7896C5.45763 10.5368 5.32108 10.1905 5.3333 9.8333V7.16663H2.66663ZM6.66663 3.16663V9.8333H13.3333V3.16663H6.66663Z" fill="#8F95A3"/>
</svg>
