<svg width="280" height="280" viewBox="0 0 280 280" fill="none" xmlns="http://www.w3.org/2000/svg">
<path d="M139.5 195L1 123L139.5 261.5V195Z" fill="#4078C0"/>
<path d="M139.5 195L278 123L139.5 261.5V195Z" fill="#8FBFF2"/>
<path d="M278 123L139.5 195L1 123H278Z" fill="#EEF9FF"/>
<path d="M278 123L139.5 51L1 123H278Z" fill="#EEF9FF"/>
<path d="M235 122L139.5 174L44 122H235Z" fill="#D3E9F2"/>
<path d="M235 122L139.5 70L44 122H235Z" fill="#D3E9F2"/>
<path d="M66 122V46L139 75V161L66 122Z" fill="#82B3E8"/>
<path d="M212 122V46L139 75V161L212 122Z" fill="#8FBFF2"/>
<path d="M135 152.5L99 134V129L135 147.5V152.5Z" fill="#5582AA"/>
<path d="M135 143.5L99 125V120L135 138.5V143.5Z" fill="#5582AA"/>
<path d="M139 75L66 46L139 19.5L212 46L139 75Z" fill="#B3D7F2"/>
<path fill-rule="evenodd" clip-rule="evenodd" d="M103.375 60.8475L66 46L139 19.5L173.876 32.1606L103.375 60.8475Z" fill="#97C7EE"/>
<path d="M104 53L66 46L139 19L175 25L104 53Z" fill="#B3D7F2"/>
</svg>
