<svg width="42" height="42" viewBox="0 0 42 42" fill="none" xmlns="http://www.w3.org/2000/svg">
<path d="M32.6848 34.3123L22.6835 24.3093C18.2344 27.4723 12.1038 26.6986 8.58004 22.5294C5.0563 18.3601 5.31504 12.1863 9.17526 8.3265C13.0345 4.46504 19.2089 4.20518 23.3789 7.72873C27.549 11.2523 28.3231 17.3835 25.1598 21.833L35.161 31.836L32.6865 34.3105L32.6848 34.3123ZM16.5988 8.74998C13.2802 8.74923 10.4172 11.0787 9.74309 14.328C9.06896 17.5773 10.769 20.8535 13.8139 22.1729C16.8589 23.4924 20.4118 22.4925 22.3217 19.7786C24.2315 17.0647 23.9734 13.3828 21.7035 10.962L22.7623 12.012L21.5688 10.822L21.5478 10.801C20.2384 9.48356 18.4562 8.74497 16.5988 8.74998Z" fill="#8F95A3"/>
</svg>
