<svg width="20" height="21" viewBox="0 0 20 21" fill="none" xmlns="http://www.w3.org/2000/svg">
<path d="M14.932 12.4334C14.7162 12.6426 14.617 12.9451 14.6662 13.2418L15.407 17.3418C15.4695 17.6893 15.3228 18.0409 15.032 18.2418C14.747 18.4501 14.3678 18.4751 14.057 18.3084L10.3662 16.3834C10.2378 16.3151 10.0953 16.2784 9.94949 16.2743H9.72366C9.64532 16.2859 9.56866 16.3109 9.49866 16.3493L5.80699 18.2834C5.62449 18.3751 5.41782 18.4076 5.21532 18.3751C4.72199 18.2818 4.39282 17.8118 4.47366 17.3159L5.21532 13.2159C5.26449 12.9168 5.16532 12.6126 4.94949 12.4001L1.94032 9.48343C1.68866 9.23927 1.60116 8.8726 1.71616 8.54177C1.82782 8.21177 2.11282 7.97093 2.45699 7.91677L6.59866 7.31593C6.91366 7.28343 7.19032 7.09177 7.33199 6.80843L9.15699 3.06677C9.20032 2.98344 9.25616 2.90677 9.32366 2.84177L9.39866 2.78344C9.43782 2.7401 9.48282 2.70427 9.53282 2.6751L9.62366 2.64177L9.76532 2.58344H10.1162C10.4295 2.61594 10.7053 2.80344 10.8495 3.08344L12.6987 6.80843C12.832 7.08094 13.0912 7.2701 13.3903 7.31593L17.532 7.91677C17.882 7.96677 18.1745 8.20844 18.2903 8.54177C18.3995 8.87594 18.3053 9.2426 18.0487 9.48343L14.932 12.4334Z" fill="#8F95A3"/>
</svg>
