<svg width="20" height="21" viewBox="0 0 20 21" fill="none" xmlns="http://www.w3.org/2000/svg">
<path d="M9.16667 7.16667V11.3333L12.7083 13.4333L13.35 12.3667L10.4167 10.625V7.16667H9.16667ZM17.5 8.83333V3L15.3 5.2C13.95 3.84167 12.075 3 10 3C5.85833 3 2.5 6.35833 2.5 10.5C2.5 14.6417 5.85833 18 10 18C14.1417 18 17.5 14.6417 17.5 10.5H15.8333C15.8333 13.7167 13.2167 16.3333 10 16.3333C6.78333 16.3333 4.16667 13.7167 4.16667 10.5C4.16667 7.28333 6.78333 4.66667 10 4.66667C11.6083 4.66667 13.0667 5.325 14.125 6.375L11.6667 8.83333H17.5Z" fill="#8F95A3"/>
</svg>
