<svg xmlns="http://www.w3.org/2000/svg" width="65" height="64" fill="none" viewBox="0 0 65 64">
  <path fill="#559FFF" d="M32.737 44.793L1.194 28.114l31.543 31.772V44.793z"/>
  <path fill="#7AB4FF" d="M32.737 44.8l31.542-16.686-31.542 31.772V44.8z"/>
  <path fill="#E6F1FF" d="M64.28 28.114L32.736 44.8 1.194 28.114 32.737 11.43l31.542 16.685z"/>
  <path fill="#559FFF" d="M54.45 28.114L32.738 40 11.022 28.114 32.737 16.23 54.45 28.114z"/>
  <path fill="#99C6FF" d="M16.05 27.886V10.514l16.694-6.127 16.493 6.127-16.5 6.629V36.8L16.05 27.886z"/>
  <path fill="#7AB4FF" d="M49.422 27.886V10.514l-16.685 6.629V36.8l16.685-8.914z"/>
  <path fill="#559FFF" d="M31.822 34.857l-8.228-4.228v-1.143l8.228 4.228v1.143zM31.822 32.8l-8.228-4.229V27.43l8.228 4.228V32.8z"/>
  <path fill="#B2D4FF" d="M49.422 10.514l-16.685 6.629-8.343-3.314 16.685-6.343 8.343 3.028z"/>
  <path fill="#B3D4FF" d="M24.737 12.114l-8.686-1.6 16.686-6.171 8.228 1.371-16.228 6.4z"/>
</svg>
