<svg xmlns="http://www.w3.org/2000/svg" width="32" height="32" fill="currentColor" viewBox="0 0 32 32">
  <path fill="#949494" d="M28.724 8.722c.02.293.02.585.02.881 0 9.008-6.605 19.397-18.68 19.397v-.005A18.088 18.088 0 010 25.938c.519.065 1.04.098 1.563.099 2.956.003 5.828-1.027 8.153-2.924-2.809-.055-5.273-1.957-6.133-4.734a6.309 6.309 0 002.964-.118C3.484 17.62 1.28 14.825 1.28 11.58v-.086a6.34 6.34 0 002.98.853C1.374 10.344.485 6.36 2.227 3.244c3.333 4.259 8.252 6.848 13.53 7.122-.528-2.368.195-4.85 1.9-6.514 2.644-2.58 6.803-2.448 9.289.296 1.47-.301 2.88-.861 4.169-1.655a6.803 6.803 0 01-2.886 3.77A12.681 12.681 0 0032 5.19a13.632 13.632 0 01-3.276 3.532z"/>
</svg>
